<?xml version="1.0" encoding="UTF-8" standalone="no"?>
<!DOCTYPE svg PUBLIC "-//W3C//DTD SVG 1.1//EN" "http://www.w3.org/Graphics/SVG/1.1/DTD/svg11.dtd">
<svg width="100%" height="100%" viewBox="0 0 32 32" version="1.1" xmlns="http://www.w3.org/2000/svg" xmlns:xlink="http://www.w3.org/1999/xlink" xml:space="preserve" xmlns:serif="http://www.serif.com/" style="fill-rule:evenodd;clip-rule:evenodd;stroke-linejoin:round;stroke-miterlimit:2;">
    <path d="M16.4,14C14,14 11.7,13.9 9.4,13.4C8.8,13.3 8.3,13 7.7,12.8C7.4,12.7 7.3,12.5 7.3,12.2L7.3,8.7C7.3,8.5 7.4,8.3 7.6,8.3C8.3,8 8.9,7.7 9.6,7.6C12.1,7 14.5,7 17,7C19,7 21.1,7.2 23,7.7C23.4,7.8 23.9,8 24.3,8.2C24.6,8.3 24.7,8.5 24.7,8.8L24.7,12.3C24.7,12.5 24.5,12.7 24.4,12.8C24,13 23.6,13.2 23.2,13.3C21.8,13.5 20.4,13.8 19,13.9C18.1,14 17.2,13.9 16.4,14ZM24.7,14.2L24.7,17.8C24.7,18 24.4,18.3 24.2,18.3C23.6,18.5 22.9,18.8 22.3,18.9C19.5,19.4 16.6,19.5 13.7,19.4C12.1,19.3 10.4,19.2 8.8,18.7C8.4,18.6 8,18.4 7.6,18.2C7.4,18.1 7.3,17.9 7.3,17.7L7.3,14.2C10.2,15.2 13.1,15.3 16,15.3C18.9,15.4 21.8,15.2 24.7,14.2ZM24.7,19.8L24.7,23.3C24.7,23.5 24.4,23.8 24.2,23.9C23.4,24.2 22.6,24.5 21.8,24.6C17.8,25.2 13.8,25.2 9.7,24.5C9,24.4 8.3,24.1 7.7,23.9C7.4,23.8 7.3,23.6 7.3,23.2L7.3,19.8C10.1,20.8 13,20.9 16,20.9C18.9,20.9 21.8,20.8 24.7,19.8Z" style="fill:rgb(245,84,133);fill-rule:nonzero;"/>
</svg>
